<svg width="512" height="512" viewBox="0 0 512 512" fill="none" xmlns="http://www.w3.org/2000/svg">
<rect width="512" height="512" fill="white"/>
<path d="M315.209 381.835C265.11 439.356 262.374 457.232 246.555 439.356C190.836 376.394 125.363 290.89 108.411 246.585C80.0239 172.393 148.006 60.0276 270.781 66.2476C333.787 69.4396 398.672 115.046 408.879 192.171C415.36 241.141 394.624 305.981 323.264 317.317C260.584 327.274 208.983 284.983 188.379 227.15C178.687 199.944 193.649 146.656 248.956 139.314C272.379 136.205 313.4 147.654 323.264 182.066C336.187 227.15 320.841 249.692 279.648 273.011" stroke="#36C6FE" stroke-width="30" stroke-linecap="round"/>
</svg>
